<mxfile host="app.diagrams.net" modified="2022-09-23T10:50:38.586Z" agent="5.0 (Macintosh; Intel Mac OS X 10_15_7) AppleWebKit/537.36 (KHTML, like Gecko) Chrome/105.0.0.0 Safari/537.36" etag="3ebz34HoVX3Ophaic6yC" version="20.3.0" type="github">
  <diagram id="_RVtbNCVzEAKqCRKZbna" name="第 1 页">
    <mxGraphModel dx="2233" dy="670" grid="1" gridSize="10" guides="1" tooltips="1" connect="1" arrows="1" fold="1" page="1" pageScale="1" pageWidth="827" pageHeight="1169" math="0" shadow="0">
      <root>
        <mxCell id="0" />
        <mxCell id="1" parent="0" />
        <mxCell id="c76AXAMbOaCvQvsumP7t-3" value="&lt;span style=&quot;color: rgb(0, 0, 0); font-family: Helvetica; font-style: normal; font-variant-ligatures: normal; font-variant-caps: normal; font-weight: 400; letter-spacing: normal; orphans: 2; text-align: center; text-indent: 0px; text-transform: none; widows: 2; word-spacing: 0px; -webkit-text-stroke-width: 0px; background-color: rgb(248, 249, 250); text-decoration-thickness: initial; text-decoration-style: initial; text-decoration-color: initial; float: none; display: inline !important;&quot;&gt;&lt;font style=&quot;font-size: 16px;&quot;&gt;一条SQL是如何执行的&lt;/font&gt;&lt;/span&gt;" style="rounded=1;whiteSpace=wrap;html=1;fillColor=#f5f5f5;strokeColor=#666666;fontColor=#333333;" vertex="1" parent="1">
          <mxGeometry x="370" y="70" width="240" height="60" as="geometry" />
        </mxCell>
        <mxCell id="c76AXAMbOaCvQvsumP7t-12" value="" style="edgeStyle=orthogonalEdgeStyle;rounded=0;orthogonalLoop=1;jettySize=auto;html=1;fontSize=16;" edge="1" parent="1" source="c76AXAMbOaCvQvsumP7t-10">
          <mxGeometry relative="1" as="geometry">
            <mxPoint x="130" y="340" as="targetPoint" />
          </mxGeometry>
        </mxCell>
        <mxCell id="c76AXAMbOaCvQvsumP7t-14" value="" style="edgeStyle=orthogonalEdgeStyle;rounded=0;orthogonalLoop=1;jettySize=auto;html=1;fontSize=16;" edge="1" parent="1" source="c76AXAMbOaCvQvsumP7t-10">
          <mxGeometry relative="1" as="geometry">
            <mxPoint x="460" y="350" as="targetPoint" />
          </mxGeometry>
        </mxCell>
        <mxCell id="c76AXAMbOaCvQvsumP7t-10" value="连接器" style="rounded=0;whiteSpace=wrap;html=1;fontSize=16;" vertex="1" parent="1">
          <mxGeometry x="220" y="230" width="120" height="60" as="geometry" />
        </mxCell>
        <mxCell id="c76AXAMbOaCvQvsumP7t-18" value="" style="edgeStyle=orthogonalEdgeStyle;rounded=0;orthogonalLoop=1;jettySize=auto;html=1;fontSize=16;" edge="1" parent="1" source="c76AXAMbOaCvQvsumP7t-15" target="c76AXAMbOaCvQvsumP7t-17">
          <mxGeometry relative="1" as="geometry" />
        </mxCell>
        <mxCell id="c76AXAMbOaCvQvsumP7t-15" value="优化器" style="rounded=1;whiteSpace=wrap;html=1;fontSize=16;" vertex="1" parent="1">
          <mxGeometry x="220" y="470" width="120" height="60" as="geometry" />
        </mxCell>
        <mxCell id="c76AXAMbOaCvQvsumP7t-17" value="执行器" style="rounded=1;whiteSpace=wrap;html=1;fontSize=16;" vertex="1" parent="1">
          <mxGeometry x="220" y="590" width="120" height="60" as="geometry" />
        </mxCell>
        <mxCell id="c76AXAMbOaCvQvsumP7t-23" value="查询缓存" style="rounded=1;whiteSpace=wrap;html=1;fontSize=16;" vertex="1" parent="1">
          <mxGeometry x="400" y="350" width="120" height="60" as="geometry" />
        </mxCell>
        <mxCell id="c76AXAMbOaCvQvsumP7t-27" value="命中直接返回结果" style="whiteSpace=wrap;html=1;shape=mxgraph.basic.rectCallout;dx=30;dy=15;boundedLbl=1;fontSize=16;" vertex="1" parent="1">
          <mxGeometry x="480" y="290" width="100" height="60" as="geometry" />
        </mxCell>
        <mxCell id="c76AXAMbOaCvQvsumP7t-29" style="edgeStyle=orthogonalEdgeStyle;rounded=0;orthogonalLoop=1;jettySize=auto;html=1;fontSize=16;" edge="1" parent="1" source="c76AXAMbOaCvQvsumP7t-28" target="c76AXAMbOaCvQvsumP7t-15">
          <mxGeometry relative="1" as="geometry" />
        </mxCell>
        <mxCell id="c76AXAMbOaCvQvsumP7t-28" value="分析器" style="rounded=1;whiteSpace=wrap;html=1;fontSize=16;" vertex="1" parent="1">
          <mxGeometry x="70" y="350" width="120" height="60" as="geometry" />
        </mxCell>
        <mxCell id="c76AXAMbOaCvQvsumP7t-32" style="edgeStyle=orthogonalEdgeStyle;rounded=0;orthogonalLoop=1;jettySize=auto;html=1;entryX=0.5;entryY=0;entryDx=0;entryDy=0;fontSize=14;" edge="1" parent="1" source="c76AXAMbOaCvQvsumP7t-30" target="c76AXAMbOaCvQvsumP7t-31">
          <mxGeometry relative="1" as="geometry" />
        </mxCell>
        <mxCell id="c76AXAMbOaCvQvsumP7t-49" value="获取数据" style="edgeLabel;html=1;align=center;verticalAlign=middle;resizable=0;points=[];fontSize=14;" vertex="1" connectable="0" parent="c76AXAMbOaCvQvsumP7t-32">
          <mxGeometry x="-0.1333" y="1" relative="1" as="geometry">
            <mxPoint as="offset" />
          </mxGeometry>
        </mxCell>
        <mxCell id="c76AXAMbOaCvQvsumP7t-47" value="" style="edgeStyle=orthogonalEdgeStyle;rounded=0;orthogonalLoop=1;jettySize=auto;html=1;fontSize=14;" edge="1" parent="1" source="c76AXAMbOaCvQvsumP7t-30" target="c76AXAMbOaCvQvsumP7t-46">
          <mxGeometry relative="1" as="geometry" />
        </mxCell>
        <mxCell id="c76AXAMbOaCvQvsumP7t-48" value="拿到数据" style="edgeLabel;html=1;align=center;verticalAlign=middle;resizable=0;points=[];fontSize=14;" vertex="1" connectable="0" parent="c76AXAMbOaCvQvsumP7t-47">
          <mxGeometry x="0.05" y="3" relative="1" as="geometry">
            <mxPoint x="3" y="-3" as="offset" />
          </mxGeometry>
        </mxCell>
        <mxCell id="c76AXAMbOaCvQvsumP7t-30" value="执行器" style="rounded=1;whiteSpace=wrap;html=1;fontSize=14;" vertex="1" parent="1">
          <mxGeometry x="230" y="890" width="120" height="60" as="geometry" />
        </mxCell>
        <mxCell id="c76AXAMbOaCvQvsumP7t-34" value="" style="edgeStyle=orthogonalEdgeStyle;rounded=0;orthogonalLoop=1;jettySize=auto;html=1;fontSize=14;" edge="1" parent="1" source="c76AXAMbOaCvQvsumP7t-31">
          <mxGeometry relative="1" as="geometry">
            <mxPoint x="290" y="1150" as="targetPoint" />
          </mxGeometry>
        </mxCell>
        <mxCell id="c76AXAMbOaCvQvsumP7t-35" value="引擎树搜索" style="edgeLabel;html=1;align=center;verticalAlign=middle;resizable=0;points=[];fontSize=14;" vertex="1" connectable="0" parent="c76AXAMbOaCvQvsumP7t-34">
          <mxGeometry x="-0.2875" y="4" relative="1" as="geometry">
            <mxPoint as="offset" />
          </mxGeometry>
        </mxCell>
        <mxCell id="c76AXAMbOaCvQvsumP7t-31" value="执行引擎接口" style="rounded=0;whiteSpace=wrap;html=1;fontSize=14;" vertex="1" parent="1">
          <mxGeometry x="230" y="1010" width="120" height="60" as="geometry" />
        </mxCell>
        <mxCell id="c76AXAMbOaCvQvsumP7t-36" style="edgeStyle=orthogonalEdgeStyle;rounded=0;orthogonalLoop=1;jettySize=auto;html=1;entryX=1;entryY=0.5;entryDx=0;entryDy=0;fontSize=14;exitX=1;exitY=0.5;exitDx=0;exitDy=0;" edge="1" parent="1" source="c76AXAMbOaCvQvsumP7t-38" target="c76AXAMbOaCvQvsumP7t-30">
          <mxGeometry relative="1" as="geometry">
            <mxPoint x="350" y="1180" as="sourcePoint" />
            <Array as="points">
              <mxPoint x="450" y="1190" />
              <mxPoint x="450" y="920" />
            </Array>
          </mxGeometry>
        </mxCell>
        <mxCell id="c76AXAMbOaCvQvsumP7t-37" value="返回行数据" style="edgeLabel;html=1;align=center;verticalAlign=middle;resizable=0;points=[];fontSize=14;" vertex="1" connectable="0" parent="c76AXAMbOaCvQvsumP7t-36">
          <mxGeometry x="0.063" relative="1" as="geometry">
            <mxPoint as="offset" />
          </mxGeometry>
        </mxCell>
        <mxCell id="c76AXAMbOaCvQvsumP7t-40" value="是" style="edgeLabel;html=1;align=center;verticalAlign=middle;resizable=0;points=[];fontSize=14;" vertex="1" connectable="0" parent="c76AXAMbOaCvQvsumP7t-36">
          <mxGeometry x="-0.8505" y="2" relative="1" as="geometry">
            <mxPoint y="1" as="offset" />
          </mxGeometry>
        </mxCell>
        <mxCell id="c76AXAMbOaCvQvsumP7t-42" value="" style="edgeStyle=orthogonalEdgeStyle;rounded=0;orthogonalLoop=1;jettySize=auto;html=1;fontSize=14;" edge="1" parent="1" source="c76AXAMbOaCvQvsumP7t-38" target="c76AXAMbOaCvQvsumP7t-41">
          <mxGeometry relative="1" as="geometry" />
        </mxCell>
        <mxCell id="c76AXAMbOaCvQvsumP7t-43" value="否" style="edgeLabel;html=1;align=center;verticalAlign=middle;resizable=0;points=[];fontSize=14;" vertex="1" connectable="0" parent="c76AXAMbOaCvQvsumP7t-42">
          <mxGeometry x="-0.4333" y="-1" relative="1" as="geometry">
            <mxPoint as="offset" />
          </mxGeometry>
        </mxCell>
        <mxCell id="c76AXAMbOaCvQvsumP7t-38" value="内存（数据页）" style="rhombus;whiteSpace=wrap;html=1;fontSize=14;rounded=0;" vertex="1" parent="1">
          <mxGeometry x="215" y="1150" width="150" height="80" as="geometry" />
        </mxCell>
        <mxCell id="c76AXAMbOaCvQvsumP7t-44" style="edgeStyle=orthogonalEdgeStyle;rounded=0;orthogonalLoop=1;jettySize=auto;html=1;entryX=0;entryY=0.5;entryDx=0;entryDy=0;fontSize=14;" edge="1" parent="1" source="c76AXAMbOaCvQvsumP7t-41" target="c76AXAMbOaCvQvsumP7t-38">
          <mxGeometry relative="1" as="geometry">
            <Array as="points">
              <mxPoint x="180" y="1340" />
              <mxPoint x="180" y="1190" />
            </Array>
          </mxGeometry>
        </mxCell>
        <mxCell id="c76AXAMbOaCvQvsumP7t-45" value="写入" style="edgeLabel;html=1;align=center;verticalAlign=middle;resizable=0;points=[];fontSize=14;" vertex="1" connectable="0" parent="c76AXAMbOaCvQvsumP7t-44">
          <mxGeometry x="0.0681" y="-1" relative="1" as="geometry">
            <mxPoint y="1" as="offset" />
          </mxGeometry>
        </mxCell>
        <mxCell id="c76AXAMbOaCvQvsumP7t-41" value="从磁盘获取数据" style="whiteSpace=wrap;html=1;fontSize=14;rounded=0;" vertex="1" parent="1">
          <mxGeometry x="230" y="1320" width="120" height="60" as="geometry" />
        </mxCell>
        <mxCell id="c76AXAMbOaCvQvsumP7t-50" style="edgeStyle=orthogonalEdgeStyle;rounded=0;orthogonalLoop=1;jettySize=auto;html=1;entryX=0;entryY=0.5;entryDx=0;entryDy=0;fontSize=14;" edge="1" parent="1" source="c76AXAMbOaCvQvsumP7t-46" target="c76AXAMbOaCvQvsumP7t-31">
          <mxGeometry relative="1" as="geometry">
            <Array as="points">
              <mxPoint x="20" y="1040" />
            </Array>
          </mxGeometry>
        </mxCell>
        <mxCell id="c76AXAMbOaCvQvsumP7t-51" value="写入" style="edgeLabel;html=1;align=center;verticalAlign=middle;resizable=0;points=[];fontSize=14;" vertex="1" connectable="0" parent="c76AXAMbOaCvQvsumP7t-50">
          <mxGeometry x="0.131" y="1" relative="1" as="geometry">
            <mxPoint as="offset" />
          </mxGeometry>
        </mxCell>
        <mxCell id="c76AXAMbOaCvQvsumP7t-46" value="更新数据，生成新记录" style="whiteSpace=wrap;html=1;fontSize=14;rounded=1;" vertex="1" parent="1">
          <mxGeometry x="-40" y="890" width="120" height="70" as="geometry" />
        </mxCell>
      </root>
    </mxGraphModel>
  </diagram>
</mxfile>
